PathFileType	4	(X/Y/Z)	C:\Users\chris\Documents\GitHub\baseballds\vids\pitch5_Sports2D\pitch5_Sports2D_px_person05.trc
DataRate	CameraRate	NumFrames	NumMarkers	Units	OrigDataRate	OrigDataStartFrame	OrigNumFrames
30	30	11	22	m	30	111	149
Frame#	Time	Hip			RHip			RKnee			RAnkle			RBigToe			RSmallToe			RHeel			LHip			LKnee			LAnkle			LBigToe			LSmallToe			LHeel			Neck			Head			Nose			RShoulder			RElbow			RWrist			LShoulder			LElbow			LWrist		
		X1	Y1	Z1	X2	Y2	Z2	X3	Y3	Z3	X4	Y4	Z4	X5	Y5	Z5	X6	Y6	Z6	X7	Y7	Z7	X8	Y8	Z8	X9	Y9	Z9	X10	Y10	Z10	X11	Y11	Z11	X12	Y12	Z12	X13	Y13	Z13	X14	Y14	Z14	X15	Y15	Z15	X16	Y16	Z16	X17	Y17	Z17	X18	Y18	Z18	X19	Y19	Z19	X20	Y20	Z20	X21	Y21	Z21	X22	Y22	Z22
111	3.6999999999999997	1408.2445309592542	491.2919475751898	0.0	1409.4409025445345	492.3713804866142	0.0	1416.9020435724215	504.00534555207923	0.0	1403.535000503573	499.98270040017394	0.0	1402.0496408697932	503.1281564017311	0.0	1402.228382546259	502.3387192293193	0.0	1402.1942385791272	497.33663971706807	0.0	1406.4521494124263	492.12973348686	0.0	1412.881185712423	503.26462943531044	0.0	1401.1937529764914	499.52320307857667	0.0	1399.6967125162914	503.5183229892622	0.0	1402.3583054550036	502.59888310200785	0.0	1400.5502562981972	498.19434504160154	0.0	1411.6967494927594	473.6886378073523	0.0	1413.3881935368315	464.6196781269241	0.0	1415.0834898865521	468.6421361718177	0.0	1412.6079251647448	475.74643438200866	0.0	1416.375307097118	484.5540651914529	0.0	1419.5697242014453	490.05031470817903	0.0	1408.8683784429027	475.9761137379168	0.0	1405.7729931007707	483.3380172856697	0.0	1425.8838682138455	483.3624163769388	0.0
112	3.7333333333333334	1407.9878018160446	491.32679579198964	0.0	1409.195037458312	492.4126945646869	0.0	1416.8169861376923	503.9696233278928	0.0	1403.4359443434905	500.00196457541983	0.0	1401.9981618317952	503.1333461337487	0.0	1402.2284501445044	502.33876105050894	0.0	1402.1134342925686	497.34920131230444	0.0	1406.1766023266296	492.1717682908721	0.0	1412.7023212655095	503.2502494125893	0.0	1401.0102768082595	499.51496506145855	0.0	1399.5751711390528	503.48866386520086	0.0	1402.358459428477	502.59874847597564	0.0	1400.4166073717968	498.1899023089388	0.0	1411.4924653838314	473.7312141051219	0.0	1413.178981925975	464.69808554499957	0.0	1414.8646085131986	468.6656629711863	0.0	1412.4682267657838	475.77824255473496	0.0	1416.344589037998	484.57475059565746	0.0	1419.3183588619731	490.2761716800662	0.0	1408.5858708652452	476.02172939958234	0.0	1405.2971982713714	483.37184229277506	0.0	1425.884094281366	483.3622314030466	0.0
113	3.7666666666666666	1407.9754226288937	491.328493337923	0.0	1409.1831632278697	492.4147048381873	0.0	1416.8128579828124	503.96785564902547	0.0	1403.4311578727334	500.00291654488535	0.0	1401.9956318278437	503.1334641163723	0.0	1402.228435076174	502.33873539889595	0.0	1402.109503887734	497.3498030197283	0.0	1406.163257802428	492.173813796994	0.0	1412.693655879681	503.24952974735896	0.0	1401.0014556974988	499.5145727540852	0.0	1399.5692061085433	503.48713369725533	0.0	1402.3584341236515	502.59865970564704	0.0	1400.4101341818723	498.1896445077507	0.0	1411.4826098983838	473.73327477236813	0.0	1413.1688758780979	464.70186377301246	0.0	1414.8540586531285	468.6668094633561	0.0	1412.4614797954664	475.77979288973876	0.0	1416.3430766666609	484.5757579617531	0.0	1419.306204800799	490.2870780904374	0.0	1408.572217542929	476.02397358473866	0.0	1405.2741517724562	483.3734693658723	0.0	1425.884164285878	483.362137746592	0.0
114	3.8	1408.0211197804692	491.3222967992122	0.0	1409.226919621712	492.4073577436411	0.0	1416.8279880987643	503.9741974160764	0.0	1403.4487858933269	499.9994960954607	0.0	1402.004777326631	503.1324914831082	0.0	1402.228416271215	502.33871773067665	0.0	1402.1238742445018	497.34756560937126	0.0	1406.2122830843732	492.16633859240267	0.0	1412.7254782515236	503.252079645751	0.0	1401.0341235722117	499.51604091896326	0.0	1399.5908015778643	503.4923759808223	0.0	1402.3583946224003	502.5986532644728	0.0	1400.4339127207452	498.1904192000163	0.0	1411.5189700650676	473.72569913724124	0.0	1413.2061083374058	464.6879065272532	0.0	1414.8930206031155	468.66262620661587	0.0	1412.486341746769	475.77413724095607	0.0	1416.3485328826848	484.5720796839384	0.0	1419.3509348255348	490.24688196374973	0.0	1408.622491689191	476.0158706092965	0.0	1405.3588035637517	483.3674471460549	0.0	1425.8841458868887	483.36213935876236	0.0
115	3.8333333333333335	1408.0404301683973	491.31967460234705	0.0	1409.2454139680676	492.4042491479242	0.0	1416.8343874484208	503.9768870119196	0.0	1403.4562371957275	499.99804573517616	0.0	1402.0086522533393	503.13210896563754	0.0	1402.2284122728836	502.33871622477477	0.0	1402.1299541197734	497.34662100122193	0.0	1406.233012335751	492.16317575741584	0.0	1412.7389343078328	503.25316282477627	0.0	1401.0479225583679	499.5166602660281	0.0	1399.5999497417056	503.494612779047	0.0	1402.3583849806894	502.5986682669077	0.0	1400.4439670941501	498.1907559515409	0.0	1411.5343360010086	473.72249622163565	0.0	1413.2218456734136	464.6820091064218	0.0	1414.909483938679	468.6608558775426	0.0	1412.4968500812306	475.77174374394053	0.0	1416.3508452499536	484.57052320147443	0.0	1419.3698437504147	490.2298927479558	0.0	1408.6437428976474	476.0124368913169	0.0	1405.3945975847864	483.36490316448175	0.0	1425.8841253799753	483.36215829390886	0.0
116	3.8666666666666667	1408.0386176651018	491.3199190084602	0.0	1409.2436799459288	492.4045391132562	0.0	1416.8337894688784	503.9766390735831	0.0	1403.4555388125461	499.99817956508565	0.0	1402.0082933124804	503.13215807183553	0.0	1402.2284144776968	502.3387191280178	0.0	1402.1293868584855	497.3467100627536	0.0	1406.231072441125	492.16347076581246	0.0	1412.7376753686096	503.2530637789099	0.0	1401.0466247783643	499.5166016419727	0.0	1399.5991015064822	503.494412815736	0.0	1402.3583891527785	502.5986750720012	0.0	1400.4430262488502	498.19072869353045	0.0	1411.5328942430663	473.7227960850232	0.0	1413.2203703493615	464.6825628959939	0.0	1414.907938229889	468.66102083988295	0.0	1412.4958648377926	475.7719667461626	0.0	1416.3506313201367	484.5706683031833	0.0	1419.3680722741638	490.23148580079356	0.0	1408.6417513331953	476.01275472842815	0.0	1405.3912483046643	483.36514233890836	0.0	1425.8841214049205	483.3621649752757	0.0
117	3.9	1408.034166618139	491.3205227905581	0.0	1409.2394176936637	492.4052549752705	0.0	1416.8323154058533	503.9760207884531	0.0	1403.453821658751	499.9985130222339	0.0	1402.0074019024717	503.1322511208512	0.0	1402.228416075372	502.33872049572483	0.0	1402.1279867048004	497.3469279425457	0.0	1406.22629648382	492.16419911227854	0.0	1412.7345752488445	503.25281507527785	0.0	1401.0434431548151	499.5164587008924	0.0	1399.5969967061226	503.4939009235796	0.0	1402.3583925824782	502.59867464895706	0.0	1400.4407097764606	498.1906526797096	0.0	1411.529352582338	473.7235340739563	0.0	1413.2167435590682	464.68392234406497	0.0	1414.9041432683873	468.661428456233	0.0	1412.4934430663673	475.77251783591277	0.0	1416.350099469368	484.57102670596015	0.0	1419.3637150005895	490.2354012328288	0.0	1408.6368540750777	476.0135445538756	0.0	1405.3830016222269	483.36572887197167	0.0	1425.884123951605	483.3621637364244	0.0
118	3.933333333333333	1408.0328767510528	491.320698046016	0.0	1409.2381822235432	492.4054627261151	0.0	1416.8318877929994	503.9758408653926	0.0	1403.4533238778129	499.9986100377802	0.0	1402.0071427883286	503.13227588924474	0.0	1402.2284162340197	502.3387204326293	0.0	1402.1275803883545	497.3469910154466	0.0	1406.2249114986917	492.16441048895854	0.0	1412.7336761897993	503.2527425672139	0.0	1401.0425215835257	499.516417359761	0.0	1399.5963850225503	503.4937509213718	0.0	1402.3583930328857	502.59867316008643	0.0	1400.4400380087864	498.19062992806846	0.0	1411.5283261605969	473.72374806310836	0.0	1413.2156922523936	464.6843162566456	0.0	1414.903043600285	468.66154677941563	0.0	1412.49274108167	475.7726778113238	0.0	1416.3499448267678	484.5711307324038	0.0	1419.3624517515977	490.2365361473833	0.0	1408.635434383742	476.01377417850125	0.0	1405.380610088968	483.36589877788555	0.0	1425.8841256710527	483.3621619703183	0.0
119	3.966666666666667	1408.0332716947844	491.32064457768394	0.0	1409.2385602994748	492.4053993187093	0.0	1416.832018423045	503.9758954488393	0.0	1403.4534761798225	499.99858059153155	0.0	1402.0072215906453	503.1322668213849	0.0	1402.2284159797946	502.3387201414953	0.0	1402.1277044153958	497.3469716583234	0.0	1406.2253349162525	492.16434597674646	0.0	1412.7339510150296	503.25276447357817	0.0	1401.042804049587	499.5164300731907	0.0	1399.5965711417068	503.4937957279768	0.0	1402.3583925277344	502.5986726927467	0.0	1400.4402433739315	498.1906364054147	0.0	1411.528640382482	473.7236826281296	0.0	1413.2160139483212	464.6841956168356	0.0	1414.903380355906	468.6615106853849	0.0	1412.4929559000032	475.7726290145856	0.0	1416.3499918268308	484.5710989921275	0.0	1419.362838169141	490.2361888262678	0.0	1408.6358687290144	476.0137043708541	0.0	1405.3813411819535	483.36584671038247	0.0	1425.884125807755	483.3621615602803	0.0
120	4.0	1408.0336702135482	491.320590501899	0.0	1409.238941933344	492.4053352070573	0.0	1416.8321504277387	503.97595085067945	0.0	1403.4536299329138	499.9985507131682	0.0	1402.0073014488792	503.13225862052184	0.0	1402.2284158547855	502.33872004626835	0.0	1402.1278298099273	497.34695215467144	0.0	1406.2257625824832	492.1642807468426	0.0	1412.7342286203634	503.25278676679767	0.0	1401.0430888866686	499.5164428663942	0.0	1399.596759695085	503.49384165803326	0.0	1402.35839225287	502.5986728115961	0.0	1400.4404508046407	498.1906432541003	0.0	1411.528957485576	473.72361654567527	0.0	1413.2163386861394	464.6840739028503	0.0	1414.9037201286205	468.6614741781141	0.0	1412.4931727408923	475.7725796571558	0.0	1416.3500394760913	484.5710668932142	0.0	1419.3632283250038	490.23583824750455	0.0	1408.6363072293543	476.01363361090756	0.0	1405.3820796406164	483.36579419976704	0.0	1425.8841255215752	483.3621617545914	0.0
121	4.033333333333333	1408.0337401409536	491.32058098935556	0.0	1409.239008924299	492.405323932213	0.0	1416.8321736276716	503.9759606348797	0.0	1403.4536569257639	499.99854543833305	0.0	1402.0073155279513	503.1322573657079	0.0	1402.2284158583725	502.3387200680881	0.0	1402.1278518601962	497.34694873796695	0.0	1406.2258377050525	492.16426927511213	0.0	1412.7342773880362	503.25279071514234	0.0	1401.043138830475	499.5164451043438	0.0	1399.596792925665	503.4938498566093	0.0	1402.358392250217	502.59867294702667	0.0	1400.4404872422447	498.19064451651093	0.0	1411.529013134268	473.72360493959616	0.0	1413.2163956925363	464.6840525493709	0.0	1414.903779741899	468.66146775545644	0.0	1412.4932108047324	475.77257097340237	0.0	1416.3500478804472	484.5710612470319	0.0	1419.3632968316501	490.23577670998543	0.0	1408.6363842156056	476.01362113260427	0.0	1405.3822093618155	483.3657849912923	0.0	1425.8841253890557	483.36216190668654	0.0
